<?xml version="1.0" encoding="utf-8"?><svg xmlns="http://www.w3.org/2000/svg" width="100%" height="100%" viewBox="0 0 210 136"><title>Hochpass</title><path fill="none" stroke="#000" stroke-width="2" d="M29.33,125.25H10.68"/><path fill="none" stroke="#000" stroke-width="2" d="M69.569,19.987H10.68"/><path fill="#FFF" stroke="#000" stroke-width="2" d="M6.665,24.004c2.217,2.218,5.813,2.22,8.031,0.002c2.218-2.216,2.22-5.812,0.002-8.03c0-0.001-0.001-0.002-0.002-0.003c-2.217-2.219-5.813-2.22-8.031-0.003c-2.219,2.217-2.22,5.813-0.003,8.031C6.663,24.002,6.664,24.003,6.665,24.004z"/><path fill="#FFF" stroke="#000" stroke-width="2" d="M6.665,129.268c2.217,2.219,5.813,2.219,8.031,0.002c2.218-2.217,2.22-5.813,0.002-8.029c0-0.002-0.001-0.002-0.002-0.004c-2.217-2.219-5.813-2.219-8.031-0.004c-2.219,2.218-2.22,5.813-0.003,8.031C6.663,129.266,6.664,129.266,6.665,129.268z"/><path fill="none" stroke="#000" stroke-width="2" d="M79.607,19.989h119.711"/><path fill="#FFF" stroke="#000" stroke-width="2" d="M203.336,15.972c-2.218-2.219-5.813-2.219-8.031-0.002c-2.219,2.217-2.221,5.813-0.002,8.031c0,0,0,0.002,0.002,0.002c2.217,2.219,5.813,2.22,8.031,0.004c2.219-2.218,2.219-5.813,0.003-8.031C203.338,15.974,203.337,15.974,203.336,15.972z"/><path fill="none" stroke="#000" stroke-width="2" d="M16.356,125.253h182.96"/><path fill="#FFF" stroke="#000" stroke-width="2" d="M203.336,121.234c-2.218-2.219-5.813-2.219-8.031-0.002s-2.221,5.813-0.002,8.031c0,0.002,0,0.002,0.002,0.004c2.217,2.217,5.813,2.217,8.031,0.002c2.219-2.218,2.219-5.813,0.003-8.03C203.338,121.236,203.337,121.236,203.336,121.234z"/><path fill="none" stroke="#000" stroke-width="3.5433" stroke-linecap="square" d="M69.607,5.069l-0.038,29.837"/><path fill="none" stroke="#000" stroke-width="3.5433" stroke-linecap="square" d="M79.569,34.907l0.038-29.838"/><path fill="none" stroke="#000" stroke-width="2" stroke-linecap="square" d="M133.686,125.25V88.866"/><path fill="none" stroke="#000" stroke-width="2" stroke-linecap="square" d="M133.686,51.567V19.989"/><rect x="126.227" y="51.567" fill="none" stroke="#000" stroke-width="2" stroke-linecap="square" stroke-linejoin="round" width="14.916" height="37.299"/><path stroke="#000" stroke-width="2.6469" stroke-linecap="square" d="M136.182,125.25c0,1.38-1.119,2.498-2.498,2.498s-2.496-1.118-2.496-2.498c0-1.377,1.117-2.496,2.496-2.496S136.182,123.873,136.182,125.25z"/><path stroke="#000" stroke-width="2.6469" stroke-linecap="square" d="M136.182,19.987c0,1.379-1.119,2.496-2.498,2.496s-2.496-1.117-2.496-2.496c0-1.379,1.117-2.496,2.496-2.496S136.182,18.608,136.182,19.987z"/><path d="M12.802,71.659c0,1.762-1.402,3.146-3.127,3.146c-1.725,0-3.127-1.384-3.127-3.146V61.196h1.933v10.272c0,0.948,0.512,1.403,1.194,1.403c0.683,0,1.194-0.455,1.194-1.403V61.196h1.934L12.802,71.659L12.802,71.659z M16.268,70.616v1.308c0,0.605,0.36,0.948,0.948,0.948c0.739,0,0.91-0.55,0.948-0.968h1.933c0,0.796-0.284,1.535-0.777,2.048c-0.512,0.53-1.213,0.853-2.104,0.853c-1.175,0-2.065-0.55-2.521-1.384c-0.265-0.491-0.36-1.175-0.36-1.952v-3.165c0-0.777,0.095-1.459,0.36-1.952c0.456-0.834,1.346-1.384,2.521-1.384c1.782,0,2.881,1.309,2.881,2.994v2.654H16.268L16.268,70.616z M16.268,69.102h1.896v-1.101c0-0.721-0.36-1.1-0.948-1.1c-0.588,0-0.948,0.379-0.948,1.1V69.102z"/><path d="M63.886,47.243c0,1.668-1.346,3.127-3.07,3.127c-1.479,0-3.184-0.721-3.184-3.184v-7.43c0-1.764,1.27-3.108,3.146-3.108c1.781,0,3.108,1.345,3.108,3.222v0.758h-1.933v-0.645c0-0.758-0.455-1.402-1.194-1.402c-0.966,0-1.194,0.664-1.194,1.574v6.898c0,0.777,0.303,1.383,1.175,1.383c0.531,0,1.213-0.303,1.213-1.364v-0.663h1.933V47.243z"/><path d="M108.753,61.253h3.108c2.293,0,3.412,1.346,3.412,3.961c0,1.555-0.438,2.691-1.668,3.374l2.084,6.159h-2.047l-1.802-5.763h-1.155v5.763h-1.934L108.753,61.253L108.753,61.253z M110.688,67.28h1.099c1.346,0,1.555-0.758,1.555-2.104c0-1.365-0.228-2.104-1.647-2.104h-1.006V67.28L110.688,67.28z"/><path d="M194.938,71.659c0,1.762-1.401,3.146-3.127,3.146s-3.127-1.384-3.127-3.146V61.196h1.934v10.272c0,0.948,0.512,1.403,1.193,1.403c0.683,0,1.194-0.455,1.194-1.403V61.196h1.933V71.659z M200.299,73.705h-0.037c-0.513,0.702-0.93,1.1-1.857,1.1c-0.893,0-2.086-0.437-2.086-2.559c0-2.198,0.625-3.26,3.053-3.26c0.266,0,0.531,0.037,0.929,0.057v-1.005c0-0.645-0.245-1.137-0.967-1.137c-0.493,0-0.985,0.341-1.101,0.967h-1.875c0.057-0.854,0.359-1.574,0.871-2.085c0.513-0.512,1.231-0.815,2.104-0.815c1.61,0,2.899,1.023,2.899,3.033v6.688h-1.934V73.705z M200.299,70.561c-0.209-0.039-0.359-0.058-0.529-0.058c-0.836,0-1.518,0.34-1.518,1.364c0,0.738,0.379,1.23,1.005,1.23c0.646,0,1.042-0.453,1.042-1.23V70.561L200.299,70.561z"/></svg>